<svg xmlns="http://www.w3.org/2000/svg" xmlns:xlink="http://www.w3.org/1999/xlink" version="1.1" viewBox="0 0 220 220"><style>@media all and (max-width: 150px) { .smallTick { display: none; } .label { display: none; } #liveButton { display: none; } } .back { fill: rgba(0, 0, 0, 0.5); } .bigTick { fill: rgba(255, 255, 255, 0.5); } .smallTick { fill: rgba(255, 255, 255, 0.5); } .minutesPointerFill { fill: #FDB462; } .pointer { cursor: pointer; } svg[data-mode=&quot;live&quot;] .pointer { transition: transform 0.2s ease; } .hours &gt; * { fill: #1F78B4; } .minutes &gt; * { fill: #2086CA; } .seconds &gt; * { fill: #CBE5F7; } .label { width: 50px; text-anchor: middle; font-family: Arial; fill: #CBE5F7; font-weight: bold; font-size: 10px; } .label.shadow { fill: gray; } #liveButton { cursor: pointer; } #liveButton &gt; rect { fill: url(#liveButtonGradient); } #liveButton:hover &gt; rect { fill: url(#hoverLiveButtonGradient); } #liveButton:active &gt; rect { fill: url(#activeLiveButtonGradient); } svg[data-mode=&quot;live&quot;] #liveButton &gt; rect { fill: url(#selectedLiveButtonGradient); } #liveButton &gt; text { text-anchor: middle; font-family: Arial; fill: white; font-size: 8px; } text { pointer-events: none; -webkit-user-select: none; -moz-user-select: none; -ms-user-select: none; }</style><defs><mask id="pointerHoursMask"><rect width="10" height="60" x="-5" y="-50" fill="#fff"/><circle cx="0" cy="-55" r="10" fill="#fff"/><circle cx="0" cy="-55" r="5" fill="#000"/></mask><mask id="pointerMinutesMask"><rect width="7.5" height="90" x="-3.75" y="-80" fill="#fff"/><circle cx="0" cy="-70" r="7.5" fill="#fff"/><circle cx="0" cy="-70" r="5" fill="#000"/></mask><linearGradient id="liveButtonGradient" x1="0%" x2="0%" y1="0%" y2="100%"><stop offset="0%" style="stop-color:#bbbdbd;stop-opacity:.85"/><stop offset="100%" style="stop-color:#9fa0a1;stop-opacity:.85"/></linearGradient><linearGradient id="hoverLiveButtonGradient" x1="0%" x2="0%" y1="0%" y2="100%"><stop offset="0%" style="stop-color:#bbbdbd;stop-opacity:.85"/><stop offset="100%" style="stop-color:#9fa0a1;stop-opacity:.85"/></linearGradient><linearGradient id="activeLiveButtonGradient" x1="0%" x2="0%" y1="0%" y2="100%"><stop offset="0%" style="stop-color:#aaa;stop-opacity:.85"/><stop offset="100%" style="stop-color:#929496;stop-opacity:.85"/></linearGradient><linearGradient id="selectedLiveButtonGradient" x1="0%" x2="0%" y1="0%" y2="100%"><stop offset="0%" style="stop-color:#d85b5b;stop-opacity:.85"/><stop offset="100%" style="stop-color:#d83c3c;stop-opacity:.85"/></linearGradient></defs><g transform="translate(10 10)"><circle cx="100" cy="100" r="100" class="back"/><g class="ticks"><g transform="translate(100 100) rotate(0 0 0)"><rect width="10" height="20" x="-5" y="-100" class="bigTick"/></g><g transform="translate(100 100) rotate(90 0 0)"><rect width="10" height="20" x="-5" y="-100" class="bigTick"/></g><g transform="translate(100 100) rotate(180 0 0)"><rect width="10" height="20" x="-5" y="-100" class="bigTick"/></g><g transform="translate(100 100) rotate(270 0 0)"><rect width="10" height="20" x="-5" y="-100" class="bigTick"/></g><g transform="translate(100 100) rotate(30 0 0)"><rect width="5" height="10" x="-2.5" y="-100" class="smallTick"/></g><g transform="translate(100 100) rotate(60 0 0)"><rect width="5" height="10" x="-2.5" y="-100" class="smallTick"/></g><g transform="translate(100 100) rotate(120 0 0)"><rect width="5" height="10" x="-2.5" y="-100" class="smallTick"/></g><g transform="translate(100 100) rotate(150 0 0)"><rect width="5" height="10" x="-2.5" y="-100" class="smallTick"/></g><g transform="translate(100 100) rotate(210 0 0)"><rect width="5" height="10" x="-2.5" y="-100" class="smallTick"/></g><g transform="translate(100 100) rotate(240 0 0)"><rect width="5" height="10" x="-2.5" y="-100" class="smallTick"/></g><g transform="translate(100 100) rotate(300 0 0)"><rect width="5" height="10" x="-2.5" y="-100" class="smallTick"/></g><g transform="translate(100 100) rotate(330 0 0)"><rect width="5" height="10" x="-2.5" y="-100" class="smallTick"/></g></g><g id="liveButton" transform="translate(100, 170)"><rect width="30" height="16" x="-15" y="-9" rx="2" ry="2"/><text alignment-baseline="middle">LIVE</text></g><g><g transform="translate(150, 100) translate(0, -6)"><text id="timeLabel" alignment-baseline="middle" class="label">10:09</text></g><g transform="translate(150, 100) translate(0, 6)"><text id="ampmLabel" x="0" y="0" alignment-baseline="middle" class="label">AM</text></g></g><g class="pointers"><g transform="translate(100 100)"><g id="pointerHours" class="pointer hours" mask="url(#pointerHoursMask)"><rect width="10" height="60" x="-5" y="-50"/><circle cx="0" cy="-55" r="10" fill="red"/></g></g><g transform="translate(100 100)"><g id="pointerMinutes" class="pointer minutes" mask="url(#pointerMinutesMask)"><rect width="7.5" height="90" x="-3.75" y="-80"/><circle cx="0" cy="-70" r="7.5" fill="red"/></g></g><g transform="translate(100 100)"><g id="pointerSeconds" class="pointer seconds"><rect width="2" height="100" x="-1" y="-90"/><rect width="4" height="20" x="-2"/><circle r="6"/></g></g></g></g></svg>